<svg xmlns="http://www.w3.org/2000/svg" viewBox="0 0 180.5 114.57"><defs><style>.cls-1{fill:#f5bd1f;}.cls-2{fill:#202125;}</style></defs><g id="Layer_2" data-name="Layer 2"><g id="Layer_1-2" data-name="Layer 1"><path class="cls-1" d="M106.39,18.68c-7.5,0-14.49,2.76-19.17,8-1,1.08-5.3,6.43-9.65,11.16C70.51,45.54,57.38,52,47.75,55.91c0,0,23.13,15.5,56.27,15.5,17.82,0,28.73-13.07,28.73-26.36A26.37,26.37,0,0,0,106.39,18.68ZM98.57,45.84A3.82,3.82,0,0,1,98,47.23a3.37,3.37,0,0,1-.48.58,3.91,3.91,0,0,1-5.54,0,3.84,3.84,0,0,1-.47-.58,3.66,3.66,0,0,1-.59-1.39,3.47,3.47,0,0,1-.08-.79,3.83,3.83,0,0,1,.67-2.19,3.92,3.92,0,0,1,7.16,2.19A4.15,4.15,0,0,1,98.57,45.84Zm12.9,0a4,4,0,0,1-.59,1.39,3.93,3.93,0,0,1-6,.58,3.37,3.37,0,0,1-.48-.58,3.82,3.82,0,0,1-.59-1.39,4.15,4.15,0,0,1-.08-.79,3.83,3.83,0,0,1,.67-2.19,3.93,3.93,0,0,1,7.18,2.19A4.15,4.15,0,0,1,111.47,45.84Zm12.89,0a3.82,3.82,0,0,1-.59,1.39,3.89,3.89,0,0,1-.48.58,3.92,3.92,0,0,1-5.55,0,3.37,3.37,0,0,1-.48-.58,4,4,0,0,1-.59-1.39,4.15,4.15,0,0,1-.08-.79,3.93,3.93,0,0,1,7.85,0A4.15,4.15,0,0,1,124.36,45.84Z"/><path class="cls-1" d="M85,25.59a112.8,112.8,0,0,1-17.41,5.59C59.15,33,51.83,30,50.22,24.34s1.41-13.26,9.41-15.53C74.54,4.59,85,25.59,85,25.59Z"/><path class="cls-1" d="M88.25,22.76s3.87-4.76,7-9.58c2.92-4.58,3.24-9.8.11-12.07S86.06.11,82.87,4.5C76.91,12.7,88.25,22.76,88.25,22.76Z"/><path class="cls-2" d="M0,114.27V88H12.84c3.31,0,5.79.62,7.46,1.87a5.91,5.91,0,0,1,2.5,5,6.3,6.3,0,0,1-1,3.59A6.62,6.62,0,0,1,19,100.75a9.42,9.42,0,0,1-4.05.82l.71-1.54a11.25,11.25,0,0,1,4.4.81,6.57,6.57,0,0,1,3,2.39,6.67,6.67,0,0,1,1.07,3.86,6.12,6.12,0,0,1-2.66,5.28q-2.67,1.91-7.85,1.9Zm6.05-4.59h7.1a6.71,6.71,0,0,0,3.58-.77A2.67,2.67,0,0,0,18,106.45,2.74,2.74,0,0,0,16.73,104a6.59,6.59,0,0,0-3.58-.8H5.6V98.76h6.49a6.27,6.27,0,0,0,3.4-.77,2.62,2.62,0,0,0,1.19-2.35,2.57,2.57,0,0,0-1.19-2.31,6.27,6.27,0,0,0-3.4-.77h-6Z"/><path class="cls-2" d="M38.35,114.57a13,13,0,0,1-6.07-1.35,9.8,9.8,0,0,1-5.46-9.06,10.3,10.3,0,0,1,1.41-5.39,10,10,0,0,1,3.85-3.68A12.05,12.05,0,0,1,43,95a9.39,9.39,0,0,1,3.77,3.6,10.82,10.82,0,0,1,1.39,5.62,7.5,7.5,0,0,1,0,.77c0,.29,0,.56-.07.81H31.59V102.4H44.92l-2.25,1a5.69,5.69,0,0,0-.64-2.74,4.69,4.69,0,0,0-1.77-1.82,5.11,5.11,0,0,0-2.63-.66,5.17,5.17,0,0,0-2.64.66,4.59,4.59,0,0,0-1.79,1.84,5.88,5.88,0,0,0-.64,2.8v.9a5.67,5.67,0,0,0,.74,2.91,4.73,4.73,0,0,0,2.06,1.92,7.16,7.16,0,0,0,3.14.65,7.49,7.49,0,0,0,2.83-.49,6.82,6.82,0,0,0,2.24-1.46l3.12,3.38a9.13,9.13,0,0,1-3.5,2.42A12.79,12.79,0,0,1,38.35,114.57Z"/><path class="cls-2" d="M62.05,114.57A13,13,0,0,1,56,113.22a9.8,9.8,0,0,1-5.46-9.06,10.3,10.3,0,0,1,1.41-5.39,10,10,0,0,1,3.85-3.68A12.05,12.05,0,0,1,66.65,95a9.39,9.39,0,0,1,3.77,3.6,10.82,10.82,0,0,1,1.39,5.62,7.5,7.5,0,0,1,0,.77c0,.29,0,.56-.07.81H55.29V102.4H68.62l-2.25,1a5.69,5.69,0,0,0-.64-2.74A4.69,4.69,0,0,0,64,98.85a5.11,5.11,0,0,0-2.63-.66,5.17,5.17,0,0,0-2.64.66,4.59,4.59,0,0,0-1.79,1.84,5.88,5.88,0,0,0-.64,2.8v.9A5.67,5.67,0,0,0,57,107.3a4.73,4.73,0,0,0,2.06,1.92,7.16,7.16,0,0,0,3.14.65,7.49,7.49,0,0,0,2.83-.49,6.82,6.82,0,0,0,2.24-1.46l3.12,3.38a9.13,9.13,0,0,1-3.5,2.42A12.79,12.79,0,0,1,62.05,114.57Z"/><path class="cls-2" d="M83.3,114.27H77.22V88H83.3Zm12.39-10.78H82.85V98.34H95.69ZM95.24,88h6.09v26.29H95.24Z"/><rect class="cls-2" x="107.15" y="94.06" width="5.86" height="20.21"/><path class="cls-2" d="M123.94,114.27l-8.49-20.21h6l7.06,17.39h-3l7.33-17.39h5.63L130,114.27Z"/><path class="cls-2" d="M150.38,114.57a13.05,13.05,0,0,1-6.07-1.35,9.84,9.84,0,0,1-5.46-9.06,10.3,10.3,0,0,1,1.41-5.39,10,10,0,0,1,3.85-3.68A12.05,12.05,0,0,1,155,95a9.48,9.48,0,0,1,3.78,3.6,10.92,10.92,0,0,1,1.38,5.62c0,.22,0,.48,0,.77s-.05.56-.08.81H143.62V102.4H157l-2.25,1a5.58,5.58,0,0,0-.64-2.74,4.67,4.67,0,0,0-1.76-1.82,5.61,5.61,0,0,0-5.28,0,4.59,4.59,0,0,0-1.79,1.84,5.87,5.87,0,0,0-.63,2.8v.9a5.67,5.67,0,0,0,.73,2.91,4.78,4.78,0,0,0,2.06,1.92,7.16,7.16,0,0,0,3.14.65,7.54,7.54,0,0,0,2.84-.49,6.88,6.88,0,0,0,2.23-1.46l3.12,3.38a9.05,9.05,0,0,1-3.5,2.42A12.75,12.75,0,0,1,150.38,114.57Z"/><path class="cls-2" d="M162.47,114.27v-3.53l11.95-14.13,1,2H162.74V94.06h17.42v3.53l-11.94,14.12-1.05-1.95H180.5v4.51Z"/></g></g></svg>